HIERARCHY
ROOT Hips
{
  OFFSET 7.333 -26.027 -164.856
  CHANNELS 6 Xposition Yposition Zposition Zrotation Xrotation Yrotation
  JOINT LeftUpLeg
  {
    OFFSET 10.092 0.000 0.000
    CHANNELS 3 Zrotation Xrotation Yrotation
    JOINT LeftLeg
    {
      OFFSET 0.000 -38.160 -0.000
    CHANNELS 3 Zrotation Xrotation Yrotation
      JOINT LeftFoot
      {
        OFFSET -0.000 -24.040 0.000
    CHANNELS 3 Zrotation Xrotation Yrotation
        End Site
        {
          OFFSET -0.000 0.000 12.945
        }
      }
    }
  }
  JOINT RightUpLeg
  {
    OFFSET -10.092 -0.000 0.000
    CHANNELS 3 Zrotation Xrotation Yrotation
    JOINT RightLeg
    {
      OFFSET 0.000 -33.046 0.000
    CHANNELS 3 Zrotation Xrotation Yrotation
      JOINT RightFoot
      {
        OFFSET 0.000 -22.031 -0.000
    CHANNELS 3 Zrotation Xrotation Yrotation
        End Site
        {
          OFFSET 0.000 -0.000 11.863
        }
      }
    }
  }
  JOINT Spine
  {
    OFFSET -0.000 16.511 0.000
    CHANNELS 3 Zrotation Xrotation Yrotation
    JOINT LeftShoulder
    {
      OFFSET 0 16.511 0
    CHANNELS 3 Zrotation Xrotation Yrotation
      JOINT LeftArm
      {
        OFFSET 16.337 0.000 0.000
    CHANNELS 3 Zrotation Xrotation Yrotation
        JOINT LeftForeArm
        {
          OFFSET 0.000 -24.030 0.000
    CHANNELS 3 Zrotation Xrotation Yrotation
          JOINT LeftHand
          {
            OFFSET 0.000 -17.629 -0.000
    CHANNELS 3 Zrotation Xrotation Yrotation
            End Site
            {
              OFFSET 0.000 -11.753 -0.000
            }
          }
        }
      }
    }
    JOINT RightShoulder
    {
      OFFSET 0 16.511 0
    CHANNELS 3 Zrotation Xrotation Yrotation
      JOINT RightArm
      {
        OFFSET -16.337 0.000 0.000
    CHANNELS 3 Zrotation Xrotation Yrotation
        JOINT RightForeArm
        {
          OFFSET -0.000 -19.534 0.000
    CHANNELS 3 Zrotation Xrotation Yrotation
          JOINT RightHand
          {
            OFFSET 0.000 -19.514 -0.000
    CHANNELS 3 Zrotation Xrotation Yrotation
            End Site
            {
              OFFSET 0.000 -13.010 -0.000
            }
          }
        }
      }
    }
    JOINT Neck
    {
      OFFSET -0.000 16.511 0.000
    CHANNELS 3 Zrotation Xrotation Yrotation
      JOINT Head
      {
        OFFSET -0.000 12.493 -0.000
    CHANNELS 3 Zrotation Xrotation Yrotation
        End Site
        {
          OFFSET -0.000 8.328 -0.000
        }
      }
    }
  }
}
MOTION
Frames: 8
Frame Time: 0.0333333
0 0 0 4.761990e-01 2.269930e+00 9.113620e+00 -3.631190e+00 7.234270e+00 4.578620e-01 -1.404750e+00 -1.058920e+01 -9.223770e-01 0 0 1.323489e-23 2.087400e-01 1.291140e+01 -4.665100e-02 4.938830e+00 -2.110510e+01 1.855990e+00 0 0 -1.000000e-06 2.000000e-06 0 -2.000000e-05 0 0 0 1.033590e+01 -7.962830e+00 -9.671390e+00 -1.368890e+01 -3.720770e-01 5.958700e+00 0 -1.323489e-23 0 0 0 0 -1.087200e+02 -3.949320e+01 -7.995610e+00 -6.034600e+01 -3.607910e+01 -4.697570e+01 0 0 0 -2.462810e-01 -7.140500e-02 -3.080000e-04 0 0 -1.323489e-23 
0 0 0 2.969850e-01 2.552700e+00 8.063242e+00 -4.019620e+00 6.964250e+00 4.881630e-01 2.551810e-01 -1.136940e+01 -7.372400e-01 0 0 1.323489e-23 2.352340e-01 1.143200e+01 -4.663200e-02 5.329420e+00 -1.893260e+01 1.809060e+00 0 0 0 -2.000000e-06 1.000000e-06 7.800000e-05 0 0 0 1.081880e+01 -7.691710e+00 -7.994150e+00 -1.415750e+01 -4.658740e-01 5.929840e+00 0 -1.323489e-23 0 0 0 0 -1.101270e+02 -4.367610e+01 -1.030780e+01 -7.149190e+01 -4.855740e+01 -6.957330e+01 1.000000e-06 1.000000e-06 0 -3.443340e-01 2.003000e-02 1.180000e-04 0 0 -1.323489e-23 
0 0 0 6.368740e-01 2.961350e+00 7.240387e+00 -5.008990e+00 6.652370e+00 5.817250e-01 2.144120e+00 -1.270910e+01 -6.233080e-01 0 0 9.483629e-08 -8.822420e-01 1.117400e+01 1.709740e-01 8.073180e+00 -1.984160e+01 2.457930e+00 0 0 -2.646978e-23 1.134021e-07 2.646978e-23 -3.100000e-05 0 0 0 1.000370e+01 -8.045300e+00 -1.028720e+01 -1.349660e+01 -1.723960e+00 5.669700e+00 0 3.767594e-08 1.533122e-08 0 0 0 -1.027480e+02 -4.395520e+01 -4.996990e+00 -1.023678e+02 -5.777490e+01 -1.099661e+02 -1.416309e-07 6.420921e-07 -8.166189e-08 -4.623100e-02 3.596760e-01 2.890000e-04 0 0 -8.916084e-08 
0 0 0 8.194927e-01 2.951833e+00 5.853373e+00 -5.930421e+00 7.395740e+00 7.660704e-01 3.621020e+00 -1.549672e+01 -6.041567e-01 0 0 NaN -1.616070e+00 1.010110e+01 2.834960e-01 8.395937e+00 -1.742325e+01 2.046520e+00 0 0 1.557190e-09 -1.436688e-06 9.648318e-07 3.600000e-05 0 0 0 1.008200e+01 -7.283060e+00 -6.515047e+00 -1.418200e+01 -4.609240e+00 4.853200e+00 0 5.343200e-08 2.120352e-08 0 0 0 -9.453505e+01 -4.287274e+01 1.013598e+00 -1.371075e+02 -5.709261e+01 -1.477050e+02 -3.724009e-08 NaN -4.832024e-08 1.700058e-01 4.441625e-01 -1.317501e-03 0 0 -1.145434e-07 
0 0 0 6.991388e-01 3.007257e+00 4.453991e+00 -5.357050e+00 7.028251e+00 6.575113e-01 2.174080e+00 -1.409704e+01 -7.663268e-01 0 0 5.293956e-23 -1.852397e+00 9.321220e+00 3.002249e-01 8.475527e+00 -1.637076e+01 1.882050e+00 0 0 1.853062e-10 NaN -2.977850e-23 2.700777e-05 0 0 0 1.025820e+01 -6.587900e+00 -2.950993e+00 -1.462291e+01 -5.458060e+00 4.541850e+00 0 7.534510e-08 1.772542e-08 0 0 0 -8.967970e+01 -4.310419e+01 4.397801e+00 -1.568273e+02 -5.258288e+01 -1.668778e+02 3.123563e-08 NaN -2.170907e-08 4.294680e-01 4.910394e-01 -3.947979e-03 0 0 -5.660401e-08 
0 0 0 2.736360e-01 3.174781e+00 4.508230e+00 -5.773430e+00 6.289265e+00 6.343160e-01 2.977770e+00 -1.175227e+01 -5.627260e-01 0 0 9.317190e-08 -8.174078e-01 9.560970e+00 1.357113e-01 5.780015e+00 -1.853610e+01 1.582283e+00 0 0 3.547865e-08 NaN 6.126876e-08 -5.304674e-05 0 0 0 1.025863e+01 -7.140195e+00 -5.648430e+00 -1.466100e+01 -7.370820e+00 4.068450e+00 0 NaN 2.692308e-08 0 0 0 -9.023690e+01 -4.236617e+01 4.075010e+00 -1.604152e+02 -5.215796e+01 -1.696468e+02 2.052303e-08 -7.762048e-08 -2.972219e-08 3.398610e-01 5.750040e-01 -3.411000e-03 0 0 NaN 
0 0 0 6.940840e-01 2.431664e+00 4.444194e+00 -5.334690e+00 7.476140e+00 6.962627e-01 4.962770e-01 -1.212658e+01 -1.009320e+00 0 0 NaN -1.804266e+00 1.079130e+01 3.380330e-01 7.599010e+00 -2.048510e+01 2.045110e+00 0 0 1.004338e-08 1.221491e-07 NaN -6.500000e-05 0 0 0 9.748411e+00 -7.118670e+00 -5.888900e+00 -1.534780e+01 -6.794572e+00 4.152180e+00 0 NaN NaN 0 0 0 -8.997121e+01 -4.459589e+01 4.105120e+00 -1.561096e+02 -5.859288e+01 -1.639161e+02 4.306407e-08 5.369867e-09 -3.623825e-08 2.074477e-01 3.619898e-01 -1.365524e-03 0 0 -1.072950e-07 
0 0 0 9.125126e-01 1.816429e+00 4.914046e+00 -5.646169e+00 8.336140e+00 8.211198e-01 1.206620e+00 -1.312843e+01 -9.972870e-01 0 0 NaN -1.128156e+00 1.081770e+01 2.118549e-01 5.038400e+00 -1.855300e+01 1.252420e+00 0 0 3.337122e-08 -7.854846e-08 NaN 3.210493e-05 0 0 0 1.014025e+01 -6.995598e+00 -5.068661e+00 -1.542160e+01 -5.475516e+00 4.497230e+00 0 9.204019e-07 1.132350e-08 0 0 0 -9.703633e+01 -4.614680e+01 -1.134689e+00 -1.319765e+02 -6.768977e+01 -1.393665e+02 4.300271e-08 4.371067e-07 -4.489618e-08 4.961200e-02 -2.753790e-01 2.383876e-04 0 0 NaN 
